{"asset":{"version":"2.0","generator":"Blockbench 5.0.7 glTF exporter"},"scenes":[{"nodes":[1,3,5,6,8,10,12,14],"name":"blockbench_export"}],"scene":0,"nodes":[{"name":"the room","mesh":0},{"name":"the room","children":[0]},{"translation":[0,-0.325,0.46875000000000006],"name":"THE CASE AAAAAAAAAAAAAAAH","mesh":1},{"translation":[0,0.34375,0],"name":"case","children":[2]},{"name":"lamp","mesh":2},{"translation":[0,0.34375,0],"name":"lamp","children":[4]},{"translation":[0,0.34375,0],"name":"button"},{"name":"bulb","mesh":3},{"translation":[0,0.5625,0],"name":"bulb","children":[7]},{"translation":[0,-0.484375,0],"name":"TABLE","mesh":4},{"translation":[0,0.5625,0],"name":"table","children":[9]},{"rotation":[-0.7071067811865475,0,0,0.7071067811865476],"name":"GLASS","mesh":5},{"translation":[0,0.26875,0.453125],"name":"glass","children":[11]},{"name":"DOOR","mesh":6},{"translation":[0,-0.053125,-0.5],"name":"Door","children":[13]}],"bufferViews":[{"buffer":0,"byteOffset":0,"byteLength":480,"target":34962,"byteStride":12},{"buffer":0,"byteOffset":480,"byteLength":480,"target":34962,"byteStride":12},{"buffer":0,"byteOffset":960,"byteLength":320,"target":34962,"byteStride":8},{"buffer":0,"byteOffset":1280,"byteLength":120,"target":34963},{"buffer":0,"byteOffset":1400,"byteLength":672,"target":34962,"byteStride":12},{"buffer":0,"byteOffset":2072,"byteLength":672,"target":34962,"byteStride":12},{"buffer":0,"byteOffset":2744,"byteLength":448,"target":34962,"byteStride":8},{"buffer":0,"byteOffset":3192,"byteLength":168,"target":34963},{"buffer":0,"byteOffset":3360,"byteLength":2592,"target":34962,"byteStride":12},{"buffer":0,"byteOffset":5952,"byteLength":2592,"target":34962,"byteStride":12},{"buffer":0,"byteOffset":8544,"byteLength":1728,"target":34962,"byteStride":8},{"buffer":0,"byteOffset":10272,"byteLength":576,"target":34963},{"buffer":0,"byteOffset":10848,"byteLength":3168,"target":34962,"byteStride":12},{"buffer":0,"byteOffset":14016,"byteLength":3168,"target":34962,"byteStride":12},{"buffer":0,"byteOffset":17184,"byteLength":2112,"target":34962,"byteStride":8},{"buffer":0,"byteOffset":19296,"byteLength":720,"target":34963},{"buffer":0,"byteOffset":20016,"byteLength":7200,"target":34962,"byteStride":12},{"buffer":0,"byteOffset":27216,"byteLength":7200,"target":34962,"byteStride":12},{"buffer":0,"byteOffset":34416,"byteLength":4800,"target":34962,"byteStride":8},{"buffer":0,"byteOffset":39216,"byteLength":1440,"target":34963},{"buffer":0,"byteOffset":40656,"byteLength":48,"target":34962,"byteStride":12},{"buffer":0,"byteOffset":40704,"byteLength":48,"target":34962,"byteStride":12},{"buffer":0,"byteOffset":40752,"byteLength":32,"target":34962,"byteStride":8},{"buffer":0,"byteOffset":40784,"byteLength":12,"target":34963},{"buffer":0,"byteOffset":40796,"byteLength":3840,"target":34962,"byteStride":12},{"buffer":0,"byteOffset":44636,"byteLength":3840,"target":34962,"byteStride":12},{"buffer":0,"byteOffset":48476,"byteLength":2560,"target":34962,"byteStride":8},{"buffer":0,"byteOffset":51036,"byteLength":888,"target":34963}],"buffers":[{"byteLength":51924,"uri":"data:application/octet-stream;base64,"}],"accessors":[{"bufferView":0,"componentType":5126,"count":40,"max":[0.5,0.625,0.5],"min":[-0.5,0,-0.5],"type":"VEC3"},{"bufferView":1,"componentType":5126,"count":40,"max":[1,1,1],"min":[-1,-1,-1],"type":"VEC3"},{"bufferView":2,"componentType":5126,"count":40,"max":[0.515625,0.671875],"min":[0,0],"type":"VEC2"},{"bufferView":3,"componentType":5123,"count":60,"max":[39],"min":[0],"type":"SCALAR"},{"bufferView":4,"componentType":5126,"count":56,"max":[0.046875,0.296875,0.03125],"min":[-0.046875,0.203125,-0.02187499962747097],"type":"VEC3"},{"bufferView":5,"componentType":5126,"count":56,"max":[1,1,1],"min":[-1,-1,-1],"type":"VEC3"},{"bufferView":6,"componentType":5126,"count":56,"max":[0.5,0.5625],"min":[0,0],"type":"VEC2"},{"bufferView":7,"componentType":5123,"count":84,"max":[55],"min":[0],"type":"SCALAR"},{"bufferView":8,"componentType":5126,"count":216,"max":[0.0625,0.296875,0.0625],"min":[-0.0625,0.203125,-0.0625],"type":"VEC3"},{"bufferView":9,"componentType":5126,"count":216,"max":[0.986393928527832,1,0.986393928527832],"min":[-0.986393928527832,-1,-0.986393928527832],"type":"VEC3"},{"bufferView":10,"componentType":5126,"count":216,"max":[0.484375,0.625],"min":[0,0],"type":"VEC2"},{"bufferView":11,"componentType":5123,"count":288,"max":[215],"min":[0],"type":"SCALAR"},{"bufferView":12,"componentType":5126,"count":264,"max":[0.03125,0.03125,0.03125],"min":[-0.03125,-0.03125,-0.03125],"type":"VEC3"},{"bufferView":13,"componentType":5126,"count":264,"max":[0.9659258127212524,0.9659258127212524,0.9659258127212524],"min":[-0.9659258127212524,-0.9659258127212524,-0.9659258127212524],"type":"VEC3"},{"bufferView":14,"componentType":5126,"count":264,"max":[0.35100001096725464,0.3125],"min":[0.00516127422451973,0],"type":"VEC2"},{"bufferView":15,"componentType":5123,"count":360,"max":[263],"min":[0],"type":"SCALAR"},{"bufferView":16,"componentType":5126,"count":600,"max":[0.13593749701976776,0.02656250074505806,0.13593749701976776],"min":[-0.13593749701976776,-0.08124999701976776,-0.13593749701976776],"type":"VEC3"},{"bufferView":17,"componentType":5126,"count":600,"max":[1,1,1],"min":[-1,-1,-1],"type":"VEC3"},{"bufferView":18,"componentType":5126,"count":600,"max":[0.984375,0.96875],"min":[0.015625,0],"type":"VEC2"},{"bufferView":19,"componentType":5123,"count":720,"max":[599],"min":[0],"type":"SCALAR"},{"bufferView":20,"componentType":5126,"count":4,"max":[0.046875,0,0.046875],"min":[-0.046875,0,-0.046875],"type":"VEC3"},{"bufferView":21,"componentType":5126,"count":4,"max":[0,1,0],"min":[0,1,0],"type":"VEC3"},{"bufferView":22,"componentType":5126,"count":4,"max":[0.25,0.25],"min":[0,0],"type":"VEC2"},{"bufferView":23,"componentType":5123,"count":6,"max":[3],"min":[0],"type":"SCALAR"},{"bufferView":24,"componentType":5126,"count":320,"max":[0.09375,0.453125,0.03437500074505806],"min":[-0.09375,0.03437500074505806,-0.03125],"type":"VEC3"},{"bufferView":25,"componentType":5126,"count":320,"max":[1,1,1],"min":[-1,-1,-1],"type":"VEC3"},{"bufferView":26,"componentType":5126,"count":320,"max":[0.9153810739517212,0.9375],"min":[0,0],"type":"VEC2"},{"bufferView":27,"componentType":5123,"count":444,"max":[319],"min":[0],"type":"SCALAR"}],"materials":[{"pbrMetallicRoughness":{"metallicFactor":0,"roughnessFactor":1,"baseColorTexture":{"index":0}},"alphaMode":"MASK","alphaCutoff":0.05,"doubleSided":true},{"pbrMetallicRoughness":{"metallicFactor":0,"roughnessFactor":1,"baseColorTexture":{"index":1}},"alphaMode":"MASK","alphaCutoff":0.05,"doubleSided":true},{"pbrMetallicRoughness":{"metallicFactor":0,"roughnessFactor":1,"baseColorTexture":{"index":2}},"alphaMode":"MASK","alphaCutoff":0.05,"doubleSided":true},{"pbrMetallicRoughness":{"metallicFactor":0,"roughnessFactor":1,"baseColorTexture":{"index":3}},"alphaMode":"MASK","alphaCutoff":0.05,"doubleSided":true},{"pbrMetallicRoughness":{"metallicFactor":0,"roughnessFactor":1,"baseColorTexture":{"index":4}},"alphaMode":"MASK","alphaCutoff":0.05,"doubleSided":true},{"pbrMetallicRoughness":{"metallicFactor":0,"roughnessFactor":1,"baseColorTexture":{"index":5}},"alphaMode":"MASK","alphaCutoff":0.05,"doubleSided":true},{"pbrMetallicRoughness":{"metallicFactor":0,"roughnessFactor":1,"baseColorTexture":{"index":6}},"alphaMode":"MASK","alphaCutoff":0.05,"doubleSided":true}],"textures":[{"sampler":0,"source":0,"name":"tha room"},{"sampler":1,"source":1,"name":"The case"},{"sampler":2,"source":2,"name":"lamp"},{"sampler":3,"source":3,"name":"bulb"},{"sampler":4,"source":4,"name":"texture"},{"sampler":5,"source":5,"name":"glass"},{"sampler":6,"source":6,"name":"door"}],"samplers":[{"magFilter":9728,"minFilter":9728,"wrapS":33071,"wrapT":33071},{"magFilter":9728,"minFilter":9728,"wrapS":33071,"wrapT":33071},{"magFilter":9728,"minFilter":9728,"wrapS":33071,"wrapT":33071},{"magFilter":9728,"minFilter":9728,"wrapS":33071,"wrapT":33071},{"magFilter":9728,"minFilter":9728,"wrapS":33071,"wrapT":33071},{"magFilter":9728,"minFilter":9728,"wrapS":33071,"wrapT":33071},{"magFilter":9728,"minFilter":9728,"wrapS":33071,"wrapT":33071}],"images":[{"mimeType":"image/png","uri":"data:image/png;base64,"},{"mimeType":"image/png","uri":"data:image/png;base64,"},{"mimeType":"image/png","uri":"data:image/png;base64,"},{"mimeType":"image/png","uri":"data:image/png;base64,"},{"mimeType":"image/png","uri":"data:image/png;base64,"},{"mimeType":"image/png","uri":"data:image/png;base64,"},{"mimeType":"image/png","uri":"data:image/png;base64,"}],"meshes":[{"primitives":[{"mode":4,"attributes":{"POSITION":0,"NORMAL":1,"TEXCOORD_0":2},"indices":3,"material":0}]},{"primitives":[{"mode":4,"attributes":{"POSITION":4,"NORMAL":5,"TEXCOORD_0":6},"indices":7,"material":1}]},{"primitives":[{"mode":4,"attributes":{"POSITION":8,"NORMAL":9,"TEXCOORD_0":10},"indices":11,"material":2}]},{"primitives":[{"mode":4,"attributes":{"POSITION":12,"NORMAL":13,"TEXCOORD_0":14},"indices":15,"material":3}]},{"primitives":[{"mode":4,"attributes":{"POSITION":16,"NORMAL":17,"TEXCOORD_0":18},"indices":19,"material":4}]},{"primitives":[{"mode":4,"attributes":{"POSITION":20,"NORMAL":21,"TEXCOORD_0":22},"indices":23,"material":5}]},{"primitives":[{"mode":4,"attributes":{"POSITION":24,"NORMAL":25,"TEXCOORD_0":26},"indices":27,"material":6}]}]}