# Made in Blockbench 5.0.7
mtllib bulb.mtl

o bulb
v 0 0.53125 0
v 0 0.59375 0
v 0.004186875 0.589563125 0.015625
v 0.007251875 0.578125 0.027063125
v 0.008373125 0.5625 0.03125
v 0.007251875 0.546875 0.027063125
v 0.004186875 0.535436875 0.015625
v 0.011438125 0.589563125 0.011438125
v 0.019811875 0.578125 0.019811875
v 0.022876875 0.5625 0.022876875
v 0.019811875 0.546875 0.019811875
v 0.011438125 0.535436875 0.011438125
v 0.015625 0.589563125 0.004186875
v 0.027063125 0.578125 0.007251875
v 0.03125 0.5625 0.008373125
v 0.027063125 0.546875 0.007251875
v 0.015625 0.535436875 0.004186875
v 0.015625 0.589563125 -0.004186875
v 0.027063125 0.578125 -0.007251875
v 0.03125 0.5625 -0.008373125
v 0.027063125 0.546875 -0.007251875
v 0.015625 0.535436875 -0.004186875
v 0.011438125 0.589563125 -0.011438125
v 0.019811875 0.578125 -0.019811875
v 0.022876875 0.5625 -0.022876875
v 0.019811875 0.546875 -0.019811875
v 0.011438125 0.535436875 -0.011438125
v 0.004186875 0.589563125 -0.015625
v 0.007251875 0.578125 -0.027063125
v 0.008373125 0.5625 -0.03125
v 0.007251875 0.546875 -0.027063125
v 0.004186875 0.535436875 -0.015625
v -0.004186875 0.589563125 -0.015625
v -0.007251875 0.578125 -0.027063125
v -0.008373125 0.5625 -0.03125
v -0.007251875 0.546875 -0.027063125
v -0.004186875 0.535436875 -0.015625
v -0.011438125 0.589563125 -0.011438125
v -0.019811875 0.578125 -0.019811875
v -0.022876875 0.5625 -0.022876875
v -0.019811875 0.546875 -0.019811875
v -0.011438125 0.535436875 -0.011438125
v -0.015625 0.589563125 -0.004186875
v -0.027063125 0.578125 -0.007251875
v -0.03125 0.5625 -0.008373125
v -0.027063125 0.546875 -0.007251875
v -0.015625 0.535436875 -0.004186875
v -0.015625 0.589563125 0.004186875
v -0.027063125 0.578125 0.007251875
v -0.03125 0.5625 0.008373125
v -0.027063125 0.546875 0.007251875
v -0.015625 0.535436875 0.004186875
v -0.011438125 0.589563125 0.011438125
v -0.019811875 0.578125 0.019811875
v -0.022876875 0.5625 0.022876875
v -0.019811875 0.546875 0.019811875
v -0.011438125 0.535436875 0.011438125
v -0.004186875 0.589563125 0.015625
v -0.007251875 0.578125 0.027063125
v -0.008373125 0.5625 0.03125
v -0.007251875 0.546875 0.027063125
v -0.004186875 0.535436875 0.015625
vt 0.066645625 0.96730875
vt 0.07444125 0.97037
vt 0.064630625 0.983895
vt 0.066645625 0.96730875
vt 0.069708125 0.95113375
vt 0.083204375 0.956434375
vt 0.07444125 0.97037
vt 0.042978125 0.862935
vt 0.039625 0.8470712499999999
vt 0.05621375 0.8447525
vt 0.05733875 0.8609275000000001
vt 0.039625 0.8470712499999999
vt 0.0385 0.83089625
vt 0.052860625 0.82888875
vt 0.05621375 0.8447525
vt 0.0385 0.83089625
vt 0.03929375 0.814453125
vt 0.047588125 0.81329375
vt 0.052860625 0.82888875
vt 0.199010625 0.7161275
vt 0.1916875 0.7201912500000001
vt 0.1875 0.70401625
vt 0.07444125 0.97037
vt 0.0805775 0.976069375
vt 0.066501875 0.985071875
vt 0.07444125 0.97037
vt 0.083204375 0.956434375
vt 0.093829375 0.966301875
vt 0.0805775 0.976069375
vt 0.19266125 0.9859275
vt 0.19378625 0.9697525
vt 0.210375 0.97207125
vt 0.207021875 0.987935
vt 0.19378625 0.9697525
vt 0.197139375 0.95388875
vt 0.2115 0.95589625
vt 0.210375 0.97207125
vt 0.21111625 0.72728375
vt 0.199010625 0.7161275
vt 0.20344125 0.709020625
vt 0.2187875 0.714979375
vt 0.20344125 0.709020625
vt 0.199010625 0.7161275
vt 0.1875 0.70401625
vt 0.0805775 0.976069375
vt 0.0831775 0.984030625
vt 0.066501875 0.985071875
vt 0.3395625 1
vt 0.3365 0.9375
vt 0.351 0.9375
vt 0.3479375 1
vt 0.216534375 0.991910625
vt 0.211016875 0.976664375
vt 0.227125 0.97207125
vt 0.230478125 0.987935
vt 0.210375 0.97207125
vt 0.2115 0.95589625
vt 0.226 0.95589625
vt 0.227125 0.97207125
vt 0.2119 0.952515
vt 0.21865 0.9375
vt 0.22679375 0.939453125
vt 0.226 0.95589625
vt 0.203866875 0.70065625
vt 0.20344125 0.709020625
vt 0.1875 0.70401625
vt 0.0831775 0.984030625
vt 0.081588125 0.992253125
vt 0.066501875 0.985071875
vt 0.294380625 0.875
vt 0.281129375 0.8652325
vt 0.29175375 0.855364375
vt 0.300516875 0.8693006249999999
vt 0.230478125 0.987935
vt 0.227125 0.97207125
vt 0.24371375 0.9697525
vt 0.24483875 0.9859275
vt 0.227125 0.97207125
vt 0.226 0.95589625
vt 0.240360625 0.95388875
vt 0.24371375 0.9697525
vt 0.226 0.95589625
vt 0.22679375 0.939453125
vt 0.235088125 0.93829375
vt 0.240360625 0.95388875
vt 0.200180625 0.69313625
vt 0.203866875 0.70065625
vt 0.1875 0.70401625
vt 0.07268 0.996700625
vt 0.064981875 1
vt 0.062458125 0.98348375
vt 0.300516875 0.8693006249999999
vt 0.29175375 0.855364375
vt 0.30525 0.85006375
vt 0.3083125 0.86623875
vt 0.13016125 0.8609275000000001
vt 0.13128625 0.8447525
vt 0.147875 0.8470712499999999
vt 0.144521875 0.862935
vt 0.13128625 0.8447525
vt 0.134639375 0.82888875
vt 0.149 0.83089625
vt 0.147875 0.8470712499999999
vt 0.134639375 0.82888875
vt 0.139911875 0.81329375
vt 0.14820625 0.814453125
vt 0.149 0.83089625
vt 0.193308125 0.68835
vt 0.200180625 0.69313625
vt 0.1875 0.70401625
vt 0.064981875 1
vt 0.056650625 0.99915
vt 0.062458125 0.98348375
vt 0.3083125 0.86623875
vt 0.30525 0.85006375
vt 0.31975 0.85006375
vt 0.3166875 0.86623875
vt 0.154034375 0.866910625
vt 0.148516875 0.851664375
vt 0.164625 0.8470712499999999
vt 0.167978125 0.862935
vt 0.147875 0.8470712499999999
vt 0.149 0.83089625
vt 0.1635 0.83089625
vt 0.164625 0.8470712499999999
vt 0.1494 0.827515
vt 0.15615 0.8125
vt 0.16429375 0.814453125
vt 0.1635 0.83089625
vt 0.18497625 0.6875
vt 0.193308125 0.68835
vt 0.1875 0.70401625
vt 0.056650625 0.99915
vt 0.049778125 0.99436375
vt 0.062458125 0.98348375
vt 0.3166875 0.86623875
vt 0.31975 0.85006375
vt 0.33324625 0.855364375
vt 0.324483125 0.8693006249999999
vt 0.167978125 0.862935
vt 0.164625 0.8470712499999999
vt 0.18121375 0.8447525
vt 0.18233875 0.8609275000000001
vt 0.164625 0.8470712499999999
vt 0.1635 0.83089625
vt 0.177860625 0.82888875
vt 0.18121375 0.8447525
vt 0.1635 0.83089625
vt 0.16429375 0.814453125
vt 0.172588125 0.81329375
vt 0.177860625 0.82888875
vt 0.174819375 0.69313625
vt 0.181691875 0.68835
vt 0.1875 0.70401625
vt 0.049778125 0.99436375
vt 0.04609125 0.98684375
vt 0.062458125 0.98348375
vt 0.324483125 0.8693006249999999
vt 0.33324625 0.855364375
vt 0.343870625 0.8652325
vt 0.330619375 0.875
vt 0.00516125 0.7359275000000001
vt 0.00628625 0.7197525
vt 0.022875 0.7220712499999999
vt 0.019521875 0.737935
vt 0.00628625 0.7197525
vt 0.009639375 0.70388875
vt 0.024 0.70589625
vt 0.022875 0.7220712499999999
vt 0.009639375 0.70388875
vt 0.014911875 0.6882937499999999
vt 0.02320625 0.689453125
vt 0.024 0.70589625
vt 0.171133125 0.70065625
vt 0.174819375 0.69313625
vt 0.1875 0.70401625
vt 0.04609125 0.98684375
vt 0.046516875 0.978479375
vt 0.062458125 0.98348375
vt 0.3395625 0.75
vt 0.3365 0.6875
vt 0.351 0.6875
vt 0.3479375 0.75
vt 0.029034375 0.741910625
vt 0.023516875 0.7266643749999999
vt 0.039625 0.7220712499999999
vt 0.042978125 0.737935
vt 0.022875 0.7220712499999999
vt 0.024 0.70589625
vt 0.0385 0.70589625
vt 0.039625 0.7220712499999999
vt 0.024 0.70589625
vt 0.02320625 0.689453125
vt 0.03135 0.6875
vt 0.0381 0.702515
vt 0.17155875 0.709020625
vt 0.171133125 0.70065625
vt 0.1875 0.70401625
vt 0.046516875 0.978479375
vt 0.050948125 0.9713725
vt 0.062458125 0.98348375
vt 0.046516875 0.978479375
vt 0.031170625 0.972520625
vt 0.0388425 0.96021625
vt 0.050948125 0.9713725
vt 0.042978125 0.737935
vt 0.039625 0.7220712499999999
vt 0.05621375 0.7197525
vt 0.05733875 0.7359275000000001
vt 0.039625 0.7220712499999999
vt 0.0385 0.70589625
vt 0.052860625 0.70388875
vt 0.05621375 0.7197525
vt 0.1562125 0.714979375
vt 0.17155875 0.709020625
vt 0.175989375 0.7161275
vt 0.16388375 0.72728375
vt 0.175989375 0.7161275
vt 0.17155875 0.709020625
vt 0.1875 0.70401625
vt 0.050948125 0.9713725
vt 0.058270625 0.96730875
vt 0.062458125 0.98348375
vt 0.050948125 0.9713725
vt 0.04042125 0.958715625
vt 0.053099375 0.951679375
vt 0.058270625 0.96730875
vt 0.00516125 0.8609275000000001
vt 0.00628625 0.8447525
vt 0.022875 0.8470712499999999
vt 0.019521875 0.862935
vt 0.00628625 0.8447525
vt 0.009639375 0.82888875
vt 0.024 0.83089625
vt 0.022875 0.8470712499999999
vt 0.009639375 0.82888875
vt 0.014911875 0.81329375
vt 0.02320625 0.814453125
vt 0.024 0.83089625
vt 0.1833125 0.7201912500000001
vt 0.175989375 0.7161275
vt 0.1875 0.70401625
vt 0.058270625 0.96730875
vt 0.066645625 0.96730875
vt 0.062458125 0.98348375
vt 0.058270625 0.96730875
vt 0.055208125 0.95113375
vt 0.069708125 0.95113375
vt 0.066645625 0.96730875
vt 0.029034375 0.866910625
vt 0.023516875 0.851664375
vt 0.039625 0.8470712499999999
vt 0.042978125 0.862935
vt 0.022875 0.8470712499999999
vt 0.024 0.83089625
vt 0.0385 0.83089625
vt 0.039625 0.8470712499999999
vt 0.0244 0.827515
vt 0.03115 0.8125
vt 0.03929375 0.814453125
vt 0.0385 0.83089625
vt 0.1916875 0.7201912500000001
vt 0.1833125 0.7201912500000001
vt 0.1875 0.70401625
vn 0.12942339324114527 0.965922913550052 0.22414841146197462
vn 0.3535415136716226 0.7071108340275325 0.6123746128895818
vn 0.4829369498840061 0.2588129833672121 0.8365331685458123
vn 0.48295040721139587 -0.2588119526880027 0.8365257182658343
vn 0.3535769541329455 -0.7071057450338899 0.6123600271459074
vn 0.12942339324114527 -0.965922913550052 0.22414841146197462
vn 0.22414841146197462 0.965922913550052 0.12942339324114527
vn 0.6123625722486474 0.7071247368002525 0.35353456226257995
vn 0.8365300778457726 0.25882630215420627 0.48293516559940586
vn 0.8365221493234312 -0.2588273325113501 0.48294834675808374
vn 0.6123391726629701 -0.707129825490301 0.3535649127451505
vn 0.22414841146197462 -0.965922913550052 0.12942339324114527
vn 0.25882878507177953 0.9659232164195386 0
vn 0.7071067811865476 0.7071067811865476 0
vn 0.9659232164195386 0.25882878507177953 0
vn 0.9659232164195385 -0.2588287850717795 0
vn 0.7071067811865476 -0.7071067811865476 0
vn 0.25882878507177953 -0.9659232164195386 0
vn 0.22414841146197462 0.965922913550052 -0.12942339324114527
vn 0.6123746128895818 0.7071108340275325 -0.3535415136716226
vn 0.8365331685458123 0.2588129833672121 -0.4829369498840061
vn 0.8365257182658343 -0.2588119526880027 -0.48295040721139587
vn 0.6123600271459074 -0.7071057450338899 -0.3535769541329455
vn 0.22414841146197462 -0.965922913550052 -0.12942339324114527
vn 0.12942339324114527 0.965922913550052 -0.22414841146197462
vn 0.35353456226257995 0.7071247368002525 -0.6123625722486474
vn 0.48293516559940586 0.25882630215420627 -0.8365300778457726
vn 0.48294834675808374 -0.2588273325113501 -0.8365221493234312
vn 0.3535649127451505 -0.707129825490301 -0.6123391726629701
vn 0.12942339324114527 -0.965922913550052 -0.22414841146197462
vn 0 0.9659232164195386 -0.25882878507177953
vn 0 0.7071067811865476 -0.7071067811865476
vn 0 0.25882878507177953 -0.9659232164195386
vn 0 -0.2588287850717795 -0.9659232164195385
vn 0 -0.7071067811865476 -0.7071067811865476
vn 0 -0.9659232164195386 -0.25882878507177953
vn -0.12942339324114527 0.965922913550052 -0.22414841146197462
vn -0.3535415136716226 0.7071108340275325 -0.6123746128895818
vn -0.4829369498840061 0.2588129833672121 -0.8365331685458123
vn -0.48295040721139587 -0.2588119526880027 -0.8365257182658343
vn -0.3535769541329455 -0.7071057450338899 -0.6123600271459074
vn -0.12942339324114527 -0.965922913550052 -0.22414841146197462
vn -0.22414841146197462 0.965922913550052 -0.12942339324114527
vn -0.6123625722486474 0.7071247368002525 -0.35353456226257995
vn -0.8365300778457726 0.25882630215420627 -0.48293516559940586
vn -0.8365221493234312 -0.2588273325113501 -0.48294834675808374
vn -0.6123391726629701 -0.707129825490301 -0.3535649127451505
vn -0.22414841146197462 -0.965922913550052 -0.12942339324114527
vn -0.25882878507177953 0.9659232164195386 0
vn -0.7071067811865476 0.7071067811865476 0
vn -0.9659232164195386 0.25882878507177953 0
vn -0.9659232164195385 -0.2588287850717795 0
vn -0.7071067811865476 -0.7071067811865476 0
vn -0.25882878507177953 -0.9659232164195386 0
vn -0.22414841146197462 0.965922913550052 0.12942339324114527
vn -0.6123746128895818 0.7071108340275325 0.3535415136716226
vn -0.8365331685458123 0.2588129833672121 0.4829369498840061
vn -0.8365257182658343 -0.2588119526880027 0.48295040721139587
vn -0.6123600271459074 -0.7071057450338899 0.3535769541329455
vn -0.22414841146197462 -0.965922913550052 0.12942339324114527
vn -0.12942339324114527 0.965922913550052 0.22414841146197462
vn -0.35353456226257995 0.7071247368002525 0.6123625722486474
vn -0.48293516559940586 0.25882630215420627 0.8365300778457726
vn -0.48294834675808374 -0.2588273325113501 0.8365221493234312
vn -0.3535649127451505 -0.707129825490301 0.6123391726629701
vn -0.12942339324114527 -0.965922913550052 0.22414841146197462
vn 0 0.9659232164195386 0.25882878507177953
vn 0 0.7071067811865476 0.7071067811865476
vn 0 0.25882878507177953 0.9659232164195386
vn 0 -0.2588287850717795 0.9659232164195385
vn 0 -0.7071067811865476 0.7071067811865476
vn 0 -0.9659232164195386 0.25882878507177953
usemtl m_6371fff6-d015-1922-35c2-2b6cbec54947
f 3/1/1 8/2/1 2/3/1
f 3/4/2 4/5/2 9/6/2 8/7/2
f 4/8/3 5/9/3 10/10/3 9/11/3
f 5/12/4 6/13/4 11/14/4 10/15/4
f 6/16/5 7/17/5 12/18/5 11/19/5
f 12/20/6 7/21/6 1/22/6
f 8/23/7 13/24/7 2/25/7
f 8/26/8 9/27/8 14/28/8 13/29/8
f 9/30/9 10/31/9 15/32/9 14/33/9
f 10/34/10 11/35/10 16/36/10 15/37/10
f 11/38/11 12/39/11 17/40/11 16/41/11
f 17/42/12 12/43/12 1/44/12
f 13/45/13 18/46/13 2/47/13
f 13/48/14 14/49/14 19/50/14 18/51/14
f 14/52/15 15/53/15 20/54/15 19/55/15
f 15/56/16 16/57/16 21/58/16 20/59/16
f 16/60/17 17/61/17 22/62/17 21/63/17
f 22/64/18 17/65/18 1/66/18
f 18/67/19 23/68/19 2/69/19
f 18/70/20 19/71/20 24/72/20 23/73/20
f 19/74/21 20/75/21 25/76/21 24/77/21
f 20/78/22 21/79/22 26/80/22 25/81/22
f 21/82/23 22/83/23 27/84/23 26/85/23
f 27/86/24 22/87/24 1/88/24
f 23/89/25 28/90/25 2/91/25
f 23/92/26 24/93/26 29/94/26 28/95/26
f 24/96/27 25/97/27 30/98/27 29/99/27
f 25/100/28 26/101/28 31/102/28 30/103/28
f 26/104/29 27/105/29 32/106/29 31/107/29
f 32/108/30 27/109/30 1/110/30
f 28/111/31 33/112/31 2/113/31
f 28/114/32 29/115/32 34/116/32 33/117/32
f 29/118/33 30/119/33 35/120/33 34/121/33
f 30/122/34 31/123/34 36/124/34 35/125/34
f 31/126/35 32/127/35 37/128/35 36/129/35
f 37/130/36 32/131/36 1/132/36
f 33/133/37 38/134/37 2/135/37
f 33/136/38 34/137/38 39/138/38 38/139/38
f 34/140/39 35/141/39 40/142/39 39/143/39
f 35/144/40 36/145/40 41/146/40 40/147/40
f 36/148/41 37/149/41 42/150/41 41/151/41
f 42/152/42 37/153/42 1/154/42
f 38/155/43 43/156/43 2/157/43
f 38/158/44 39/159/44 44/160/44 43/161/44
f 39/162/45 40/163/45 45/164/45 44/165/45
f 40/166/46 41/167/46 46/168/46 45/169/46
f 41/170/47 42/171/47 47/172/47 46/173/47
f 47/174/48 42/175/48 1/176/48
f 43/177/49 48/178/49 2/179/49
f 43/180/50 44/181/50 49/182/50 48/183/50
f 44/184/51 45/185/51 50/186/51 49/187/51
f 45/188/52 46/189/52 51/190/52 50/191/52
f 46/192/53 47/193/53 52/194/53 51/195/53
f 52/196/54 47/197/54 1/198/54
f 48/199/55 53/200/55 2/201/55
f 48/202/56 49/203/56 54/204/56 53/205/56
f 49/206/57 50/207/57 55/208/57 54/209/57
f 50/210/58 51/211/58 56/212/58 55/213/58
f 51/214/59 52/215/59 57/216/59 56/217/59
f 57/218/60 52/219/60 1/220/60
f 53/221/61 58/222/61 2/223/61
f 53/224/62 54/225/62 59/226/62 58/227/62
f 54/228/63 55/229/63 60/230/63 59/231/63
f 55/232/64 56/233/64 61/234/64 60/235/64
f 56/236/65 57/237/65 62/238/65 61/239/65
f 62/240/66 57/241/66 1/242/66
f 58/243/67 3/244/67 2/245/67
f 58/246/68 59/247/68 4/248/68 3/249/68
f 59/250/69 60/251/69 5/252/69 4/253/69
f 60/254/70 61/255/70 6/256/70 5/257/70
f 61/258/71 62/259/71 7/260/71 6/261/71
f 7/262/72 62/263/72 1/264/72