# Made in Blockbench 5.0.7
mtllib case.mtl

o THE CASE AAAAAAAAAAAAAAAH
v 0.046875 0.315625 0.5
v 0.046875 0.315625 0.446875
v 0.046875 0.221875 0.5
v 0.046875 0.221875 0.446875
v -0.046875 0.315625 0.5
v -0.046875 0.315625 0.446875
v -0.046875 0.221875 0.5
v -0.046875 0.221875 0.446875
v 0.0390625 0.3109375 0.446875
v 0.0390625 0.2265625 0.446875
v -0.0390625 0.3109375 0.446875
v -0.0390625 0.2265625 0.446875
v 0.0390625 0.3109375 0.484375
v 0.0390625 0.2265625 0.484375
v -0.0390625 0.3109375 0.484375
v -0.0390625 0.2265625 0.484375
vt 0.0625 0.75
vt 0 0.75
vt 0 0.5625
vt 0.0625 0.5625
vt 0.1875 0.5625
vt 0.1875 0.75
vt 0.125 0.75
vt 0.125 0.5625
vt 0.25 0.6875
vt 0.375 0.6875
vt 0.375 0.75
vt 0.25 0.75
vt 0.5 0.9375
vt 0.5 1
vt 0.375 1
vt 0.375 0.9375
vt 0.125 0.8125
vt 0.125 1
vt 0 1
vt 0 0.8125
vt 0.3125 0.625
vt 0.25 0.625
vt 0.25 0.5
vt 0.3125 0.5
vt 0.2109375 0.9921875
vt 0.2890625 0.9921875
vt 0.296875 1
vt 0.203125 1
vt 0.2109375 0.8515625
vt 0.2109375 0.9921875
vt 0.203125 1
vt 0.203125 0.84375
vt 0.2890625 0.8515625
vt 0.2109375 0.8515625
vt 0.203125 0.84375
vt 0.296875 0.84375
vt 0.2890625 0.9921875
vt 0.2890625 0.8515625
vt 0.296875 0.84375
vt 0.296875 1
vt 0.0625 0.5
vt 0 0.5
vt 0 0.4375
vt 0.0625 0.4375
vt 0.4375 0.5
vt 0.4375 0.625
vt 0.375 0.625
vt 0.375 0.5
vt 0.125 0.4375
vt 0.1875 0.4375
vt 0.1875 0.5
vt 0.125 0.5
vt 0.4375 0.875
vt 0.4375 0.75
vt 0.5 0.75
vt 0.5 0.875
vn 1 0 0
vn -1 0 0
vn 0 1 0
vn 0 -1 0
vn 0 0 1
vn 0 0 -1
vn 0 0 -1
vn 0 0 -1
vn 0 0 -1
vn 0 0 -1
vn 0 -1 0
vn -1 0 0
vn 0 1 0
vn 1 0 0
usemtl m_dd571883-e616-7c8c-e2fa-7fa871fee116
f 2/1/1 1/2/1 3/3/1 4/4/1
f 7/5/2 5/6/2 6/7/2 8/8/2
f 5/9/3 1/10/3 2/11/3 6/12/3
f 4/13/4 3/14/4 7/15/4 8/16/4
f 3/17/5 1/18/5 5/19/5 7/20/5
f 15/21/6 13/22/6 14/23/6 16/24/6
f 9/25/7 11/26/7 6/27/7 2/28/7
f 10/29/8 9/30/8 2/31/8 4/32/8
f 12/33/9 10/34/9 4/35/9 8/36/9
f 11/37/10 12/38/10 8/39/10 6/40/10
f 13/41/11 15/42/11 11/43/11 9/44/11
f 14/45/12 13/46/12 9/47/12 10/48/12
f 16/49/13 14/50/13 10/51/13 12/52/13
f 15/53/14 16/54/14 12/55/14 11/56/14