# Made in Blockbench 5.0.7
mtllib door.mtl

o DOOR
v 0.09375 0.4 -0.46875
v 0.09375 0.4 -0.53125
v 0.09375 -0.018749999999999996 -0.46875
v 0.09375 -0.018749999999999996 -0.53125
v -0.09375 0.4 -0.46875
v -0.09375 0.4 -0.53125
v -0.09375 -0.018749999999999996 -0.46875
v -0.09375 -0.018749999999999996 -0.53125
v 0.078125 0.384375 -0.46875
v -0.078125 0.384375 -0.46875
v 0.078125 -0.012499999999999997 -0.46875
v -0.078125 -0.012499999999999997 -0.46875
v 0.078125 0.384375 -0.484375
v -0.078125 0.384375 -0.484375
v 0.078125 -0.012499999999999997 -0.484375
v -0.078125 -0.012499999999999997 -0.484375
v 0.0625 0.1671875 -0.4765625
v 0.0625 0.1890625 -0.4765625
v 0.063965625 0.187596875 -0.47109375
v 0.065038125 0.18359375 -0.467090625
v 0.065430625 0.178125 -0.465625
v 0.065038125 0.17265624999999998 -0.467090625
v 0.063965625 0.168653125 -0.47109375
v 0.066503125 0.187596875 -0.472559375
v 0.069434375 0.18359375 -0.469628125
v 0.070506875 0.178125 -0.46855562500000003
v 0.069434375 0.17265624999999998 -0.469628125
v 0.066503125 0.168653125 -0.472559375
v 0.06796875 0.187596875 -0.475096875
v 0.071971875 0.18359375 -0.474024375
v 0.0734375 0.178125 -0.473631875
v 0.071971875 0.17265624999999998 -0.474024375
v 0.06796875 0.168653125 -0.475096875
v 0.06796875 0.187596875 -0.478028125
v 0.071971875 0.18359375 -0.479100625
v 0.0734375 0.178125 -0.479493125
v 0.071971875 0.17265624999999998 -0.479100625
v 0.06796875 0.168653125 -0.478028125
v 0.066503125 0.187596875 -0.480565625
v 0.069434375 0.18359375 -0.483496875
v 0.070506875 0.178125 -0.484569375
v 0.069434375 0.17265624999999998 -0.483496875
v 0.066503125 0.168653125 -0.480565625
v 0.063965625 0.187596875 -0.48203125
v 0.065038125 0.18359375 -0.486034375
v 0.065430625 0.178125 -0.4875
v 0.065038125 0.17265624999999998 -0.486034375
v 0.063965625 0.168653125 -0.48203125
v 0.061034375 0.187596875 -0.48203125
v 0.059961875 0.18359375 -0.486034375
v 0.059569375 0.178125 -0.4875
v 0.059961875 0.17265624999999998 -0.486034375
v 0.061034375 0.168653125 -0.48203125
v 0.058496875 0.187596875 -0.480565625
v 0.055565625 0.18359375 -0.483496875
v 0.054493125 0.178125 -0.484569375
v 0.055565625 0.17265624999999998 -0.483496875
v 0.058496875 0.168653125 -0.480565625
v 0.05703125 0.187596875 -0.478028125
v 0.053028125 0.18359375 -0.479100625
v 0.0515625 0.178125 -0.479493125
v 0.053028125 0.17265624999999998 -0.479100625
v 0.05703125 0.168653125 -0.478028125
v 0.05703125 0.187596875 -0.475096875
v 0.053028125 0.18359375 -0.474024375
v 0.0515625 0.178125 -0.473631875
v 0.053028125 0.17265624999999998 -0.474024375
v 0.05703125 0.168653125 -0.475096875
v 0.058496875 0.187596875 -0.472559375
v 0.055565625 0.18359375 -0.469628125
v 0.054493125 0.178125 -0.46855562500000003
v 0.055565625 0.17265624999999998 -0.469628125
v 0.058496875 0.168653125 -0.472559375
v 0.061034375 0.187596875 -0.47109375
v 0.059961875 0.18359375 -0.467090625
v 0.059569375 0.178125 -0.465625
v 0.059961875 0.17265624999999998 -0.467090625
v 0.061034375 0.168653125 -0.47109375
vt 0.5625 1
vt 0.5 1
vt 0.5 0.5625
vt 0.5625 0.5625
vt 0.3125 0.0625
vt 0.3125 0.5
vt 0.25 0.5
vt 0.25 0.0625
vt 0.625 0.9375
vt 0.8125 0.9375
vt 0.8125 1
vt 0.625 1
vt 0.8125 0.8125
vt 0.8125 0.875
vt 0.625 0.875
vt 0.625 0.8125
vt 0.1875 0.125
vt 0.1875 0.5
vt 0 0.5
vt 0 0.125
vt 0.1875 1
vt 0 1
vt 0 0.5625
vt 0.1875 0.5625
vt 0.421875 0.984375
vt 0.421875 0.5875
vt 0.4375 0.58125
vt 0.4375 1
vt 0.265625 0.984375
vt 0.421875 0.984375
vt 0.4375 1
vt 0.25 1
vt 0.265625 0.5875
vt 0.265625 0.984375
vt 0.25 1
vt 0.25 0.58125
vt 0.421875 0.5875
vt 0.265625 0.5875
vt 0.25 0.58125
vt 0.4375 0.58125
vt 0.375 0.5
vt 0.375 0.125
vt 0.4375 0.125
vt 0.4375 0.5
vt 0.625 0.6875
vt 0.8125 0.6875
vt 0.8125 0.75
vt 0.625 0.75
vt 0.5625 0.125
vt 0.5625 0.5
vt 0.5 0.5
vt 0.5 0.125
vt 0.8125 0.625
vt 0.625 0.625
vt 0.625 0.5625
vt 0.8125 0.5625
vt 0.654196875 0.37469624999999995
vt 0.65179375 0.3730175
vt 0.65624 0.36921625
vt 0.78406875 0.49931499999999995
vt 0.7837875 0.49355812499999996
vt 0.78881375 0.494260625
vt 0.78697125 0.49972062500000003
vt 0.7837875 0.49355812499999996
vt 0.78418125 0.48789562500000005
vt 0.7899875 0.488706875
vt 0.78881375 0.494260625
vt 0.78418125 0.48789562500000005
vt 0.785355 0.4823425
vt 0.79038125 0.48304437499999997
vt 0.7899875 0.488706875
vt 0.91064625 0.821230625
vt 0.90957125 0.815568125
vt 0.912298125 0.81449375
vt 0.915368125 0.819370625
vt 0.652699375 0.43864562500000004
vt 0.655396875 0.4375
vt 0.656264375 0.44328375
vt 0.65179375 0.3730175
vt 0.65050625 0.370384375
vt 0.65623875 0.369216875
vt 0.904420625 0.75
vt 0.901350625 0.7451218749999999
vt 0.906074375 0.7432675
vt 0.907149375 0.7489287499999999
vt 0.77211875 0.32943875
vt 0.772511875 0.3237825
vt 0.778318125 0.324594375
vt 0.777144375 0.33014187500000003
vt 0.772511875 0.3237825
vt 0.77368625 0.31822937500000004
vt 0.778711875 0.318931875
vt 0.778318125 0.324594375
vt 0.77368625 0.31822937500000004
vt 0.77553375 0.31277625
vt 0.778436875 0.31318250000000003
vt 0.778711875 0.318931875
vt 0.649015 0.44310125
vt 0.649569375 0.44022312500000005
vt 0.654853125 0.442729375
vt 0.65050625 0.370384375
vt 0.650658125 0.367463125
vt 0.6562375 0.3692175
vt 0.907149375 0.74893
vt 0.906074375 0.7432675
vt 0.911149375 0.7432675
vt 0.910074375 0.74893
vt 0.780475 0.33153937499999997
vt 0.77854375 0.326201875
vt 0.78418125 0.324594375
vt 0.785355625 0.330148125
vt 0.778318125 0.324588125
vt 0.778711875 0.318931875
vt 0.783786875 0.318931875
vt 0.784180625 0.324588125
vt 0.7787125 0.318939375
vt 0.778436875 0.31318250000000003
vt 0.78128125 0.3125
vt 0.7836475 0.317755625
vt 0.64992625 0.44588062500000003
vt 0.649015 0.44310125
vt 0.654845625 0.442729375
vt 0.650658125 0.367463125
vt 0.65220875 0.364975625
vt 0.6562375 0.3692175
vt 0.650658125 0.367463125
vt 0.645284375 0.36538000000000004
vt 0.647969375 0.361073125
vt 0.65220875 0.364975625
vt 0.785355625 0.330148125
vt 0.78418125 0.324594375
vt 0.7899875 0.3237825
vt 0.79038125 0.329445
vt 0.78418125 0.324594375
vt 0.783786875 0.318931875
vt 0.788813125 0.31822937500000004
vt 0.7899875 0.3237825
vt 0.645285625 0.44929937499999995
vt 0.64992625 0.44588062500000003
vt 0.652074375 0.447875625
vt 0.649004375 0.4527525
vt 0.652074375 0.447875625
vt 0.64992625 0.44588062500000003
vt 0.654850625 0.44272625
vt 0.65220875 0.364975625
vt 0.654773125 0.36355562500000005
vt 0.6562375 0.3692175
vt 0.65220875 0.364975625
vt 0.648530625 0.36053999999999997
vt 0.65297 0.35808125
vt 0.654773125 0.36355562500000005
vt 0.89868625 1
vt 0.8975125 0.99444625
vt 0.90331875 0.993635
vt 0.9037125 0.9992975
vt 0.8975125 0.99444625
vt 0.89711875 0.98878375
vt 0.902145 0.988081875
vt 0.90331875 0.993635
vt 0.649004375 0.4527525
vt 0.652074375 0.447875625
vt 0.654801875 0.448949375
vt 0.653726875 0.454611875
vt 0.654801875 0.448949375
vt 0.652074375 0.447875625
vt 0.65551625 0.443145
vt 0.654773125 0.36355562500000005
vt 0.657698125 0.36355562500000005
vt 0.656235625 0.36921187499999997
vt 0.654773125 0.36355562500000005
vt 0.653698125 0.35789312500000003
vt 0.658773125 0.35789312500000003
vt 0.657698125 0.36355562500000005
vt 0.9037125 0.9992975
vt 0.90331875 0.993635
vt 0.90918125 0.993635
vt 0.9087875 0.9992975
vt 0.903543125 0.992028125
vt 0.905474375 0.986690625
vt 0.910355 0.988081875
vt 0.90918125 0.993635
vt 0.653726875 0.454611875
vt 0.654801875 0.448949375
vt 0.657726875 0.448949375
vt 0.658801875 0.454611875
vt 0.657726875 0.448949375
vt 0.654801875 0.448949375
vt 0.656264375 0.44328687499999997
vt 0.65769875 0.363554375
vt 0.660426875 0.36462562499999995
vt 0.65699625 0.36936187499999995
vt 0.65769875 0.363554375
vt 0.658773125 0.35789312500000003
vt 0.663496875 0.3597475
vt 0.660426875 0.36462562499999995
vt 0.9087875 0.9992975
vt 0.90918125 0.993635
vt 0.9149875 0.99444625
vt 0.91381375 1
vt 0.90918125 0.993635
vt 0.910355 0.988081875
vt 0.91538125 0.98878375
vt 0.9149875 0.99444625
vt 0.659539375 0.45441937499999996
vt 0.657726875 0.448949375
vt 0.66029 0.44752749999999997
vt 0.663976875 0.4519575
vt 0.66029 0.44752749999999997
vt 0.657726875 0.448949375
vt 0.65626375 0.443285625
vt 0.660430625 0.36461937499999997
vt 0.66257875 0.36661437500000005
vt 0.657653125 0.369768125
vt 0.660430625 0.36461937499999997
vt 0.663496875 0.3597475
vt 0.667215625 0.363201875
vt 0.66257875 0.36661437500000005
vt 0.64868625 0.24426375
vt 0.6475125 0.23871062499999995
vt 0.653318125 0.23789875000000005
vt 0.6537125 0.24356124999999995
vt 0.6475125 0.23871062499999995
vt 0.64711875 0.23305437500000004
vt 0.652145 0.23235125
vt 0.653318125 0.23789875000000005
vt 0.66452875 0.45143124999999995
vt 0.66029 0.44752749999999997
vt 0.66184125 0.44504062499999997
vt 0.667214375 0.447125
vt 0.66184125 0.44504062499999997
vt 0.66029 0.44752749999999997
vt 0.6562625 0.44328437499999995
vt 0.66257875 0.36661437500000005
vt 0.66348875 0.36939374999999997
vt 0.65765875 0.36976437500000003
vt 0.65621625 0.25
vt 0.65385125 0.24474375000000004
vt 0.658786875 0.24356124999999995
vt 0.65906125 0.24931812499999995
vt 0.653711875 0.24355499999999997
vt 0.653318125 0.23789875000000005
vt 0.659180625 0.23789875000000005
vt 0.658786875 0.24355499999999997
vt 0.653543125 0.23629124999999995
vt 0.655474375 0.23095374999999996
vt 0.660355 0.23234500000000002
vt 0.659180625 0.23789875000000005
vt 0.7787125 0.25
vt 0.7797875 0.1875
vt 0.7827125 0.1875
vt 0.7837875 0.25
vt 0.66199375 0.442119375
vt 0.66184125 0.44504062499999997
vt 0.6562625 0.44328437499999995
vt 0.66348875 0.36939374999999997
vt 0.662934375 0.3722725
vt 0.657650625 0.369765
vt 0.65906125 0.249316875
vt 0.658786875 0.24356124999999995
vt 0.6638125 0.24426375
vt 0.66196375 0.24972312500000005
vt 0.658786875 0.24356124999999995
vt 0.659180625 0.23789875000000005
vt 0.664986875 0.23871062499999995
vt 0.6638125 0.24426375
vt 0.659180625 0.23789875000000005
vt 0.660355 0.23234500000000002
vt 0.66538125 0.23304812500000005
vt 0.664986875 0.23871062499999995
vt 0.897131875 0.8159175
vt 0.901771875 0.8125
vt 0.9039175 0.814496875
vt 0.9008475 0.819374375
vt 0.6607075 0.439485625
vt 0.66199375 0.442119375
vt 0.65626125 0.44328500000000004
vt 0.659803125 0.37385187499999994
vt 0.65710625 0.375
vt 0.65624 0.369214375
vt 0.775535 0.49972000000000005
vt 0.77368625 0.494260625
vt 0.7787125 0.49355812499999996
vt 0.7784375 0.499314375
vt 0.77368625 0.494260625
vt 0.7725125 0.488706875
vt 0.77831875 0.48789562500000005
vt 0.7787125 0.49355812499999996
vt 0.7725125 0.488706875
vt 0.77211875 0.48304437499999997
vt 0.777145 0.4823425
vt 0.77831875 0.48789562500000005
vt 0.9008475 0.819374375
vt 0.9039175 0.814496875
vt 0.90664625 0.815568125
vt 0.90557125 0.821229375
vt 0.65830625 0.43780375000000005
vt 0.6607075 0.439485625
vt 0.65626125 0.44328500000000004
vt 0.65710625 0.375
vt 0.654196875 0.37469624999999995
vt 0.65624 0.36921625
vt 0.781225 0.5
vt 0.77885375 0.49474687500000003
vt 0.7837875 0.49355812499999996
vt 0.78406875 0.49931499999999995
vt 0.7787125 0.49355812499999996
vt 0.77831875 0.48789562500000005
vt 0.78418125 0.48789562500000005
vt 0.7837875 0.49355812499999996
vt 0.778543125 0.48628875000000005
vt 0.780474375 0.48095125000000005
vt 0.785355 0.4823425
vt 0.78418125 0.48789562500000005
vt 0.90557125 0.821230625
vt 0.90664625 0.815568125
vt 0.90957125 0.815568125
vt 0.91064625 0.821230625
vt 0.655396875 0.4375
vt 0.65830625 0.43780375000000005
vt 0.65626375 0.4432775
vn 1 0 0
vn -1 0 0
vn 0 1 0
vn 0 -1 0
vn 0 0 1
vn 0 0 -1
vn 0 0 1
vn 0 0 1
vn 0 0 1
vn 0 0 1
vn -1 0 0
vn 0 -1 0
vn 1 0 0
vn 0 1 0
vn 0.1294747396946764 0.9659121313510842 0.22416522096391694
vn 0.3534802469635078 0.7071117856421836 0.6124088810692903
vn 0.4829404857113123 0.2588487082899578 0.8365200735652086
vn 0.4828616319708638 -0.2588547471505209 0.8365637239613454
vn 0.3536730847007304 -0.7070840886088544 0.6123295197803679
vn 0.12947473969467643 -0.9659121313510842 0.224165220963917
vn 0.22416522096391722 0.9659121313510842 0.12947473969467627
vn 0.6123433689772607 0.7071874182915786 0.35344243361496674
vn 0.8365381826636574 0.2587706668914282 0.4829509404715464
vn 0.836584636378327 -0.2587646296675493 0.48287370254421436
vn 0.6122160575776788 -0.7072151009949067 0.35360755049745224
vn 0.22416522096391722 -0.9659121313510842 0.12947473969467627
vn 0.25886483308141084 0.9659135562739213 0
vn 0.7071067811865462 0.7071067811865488 0
vn 0.9659135562739212 0.25886483308141084 0
vn 0.9659135562739214 -0.25886483308140956 0
vn 0.7071067811865462 -0.7071067811865489 0
vn 0.25886483308141084 -0.9659135562739213 0
vn 0.22416522096391722 0.9659121313510842 -0.12947473969467627
vn 0.6124088810692895 0.7071117856421844 -0.35348024696350766
vn 0.8365200735652094 0.25884870828995665 -0.4829404857113118
vn 0.8365637239613456 -0.25885474715051965 -0.48286163197086424
vn 0.6123295197803674 -0.7070840886088552 -0.3536730847007294
vn 0.22416522096391722 -0.9659121313510842 -0.12947473969467627
vn 0.12947473969467643 0.9659121313510842 -0.224165220963917
vn 0.35344243361496697 0.7071874182915783 -0.612343368977261
vn 0.48295094047154585 0.258770666891429 -0.8365381826636573
vn 0.48287370254421424 -0.2587646296675502 -0.8365846363783268
vn 0.35360755049745296 -0.7072151009949066 -0.6122160575776786
vn 0.1294747396946764 -0.9659121313510842 -0.22416522096391694
vn 0 0.9659135562739213 -0.2588648330814105
vn 0 0.7071067811865478 -0.7071067811865474
vn 0 0.2588648330814111 -0.9659135562739212
vn 0 -0.25886483308140984 -0.9659135562739214
vn 0 -0.7071067811865477 -0.7071067811865474
vn 0 -0.9659135562739213 -0.2588648330814105
vn -0.12947473969467613 0.9659121313510843 -0.22416522096391706
vn -0.35348024696350844 0.7071117856421837 -0.6124088810692899
vn -0.4829404857113112 0.2588487082899566 -0.8365200735652097
vn -0.48286163197086485 -0.25885474715051954 -0.8365637239613452
vn -0.3536730847007296 -0.7070840886088546 -0.6123295197803681
vn -0.12947473969467613 -0.9659121313510843 -0.22416522096391706
vn -0.224165220963917 0.9659121313510842 -0.12947473969467613
vn -0.6123433689772617 0.7071874182915775 -0.35344243361496724
vn -0.8365381826636572 0.2587706668914294 -0.482950940471546
vn -0.8365846363783267 -0.2587646296675506 -0.4828737025442143
vn -0.6122160575776797 -0.7072151009949057 -0.3536075504974527
vn -0.22416522096391694 -0.9659121313510842 -0.1294747396946761
vn -0.2588648330814105 0.9659135562739212 0
vn -0.7071067811865476 0.7071067811865476 0
vn -0.965913556273921 0.25886483308141195 0
vn -0.9659135562739213 -0.25886483308141073 0
vn -0.7071067811865476 -0.7071067811865476 0
vn -0.2588648330814105 -0.9659135562739212 0
vn -0.22416522096391694 0.9659121313510842 0.1294747396946761
vn -0.6124088810692905 0.7071117856421834 0.3534802469635082
vn -0.836520073565209 0.25884870828995754 0.4829404857113118
vn -0.8365637239613453 -0.2588547471505206 0.48286163197086407
vn -0.6123295197803684 -0.7070840886088543 0.3536730847007297
vn -0.224165220963917 -0.9659121313510842 0.12947473969467613
vn -0.12947473969467613 0.9659121313510843 0.22416522096391706
vn -0.35344243361496747 0.7071874182915777 0.6123433689772614
vn -0.4829509404715463 0.25877066689142914 0.8365381826636571
vn -0.4828737025442146 -0.2587646296675503 0.8365846363783266
vn -0.35360755049745257 -0.7072151009949058 0.6122160575776797
vn -0.12947473969467613 -0.9659121313510843 0.22416522096391706
vn 0 0.9659135562739213 0.2588648330814105
vn 0 0.7071067811865476 0.7071067811865476
vn 0 0.2588648330814119 0.9659135562739208
vn 0 -0.25886483308141073 0.9659135562739212
vn 0 -0.7071067811865476 0.7071067811865476
vn 0 -0.9659135562739213 0.2588648330814105
usemtl m_0ddc5093-701f-926f-593c-246112824e07
f 2/1/1 1/2/1 3/3/1 4/4/1
f 7/5/2 5/6/2 6/7/2 8/8/2
f 5/9/3 1/10/3 2/11/3 6/12/3
f 4/13/4 3/14/4 7/15/4 8/16/4
f 15/17/5 13/18/5 14/19/5 16/20/5
f 6/21/6 2/22/6 4/23/6 8/24/6
f 9/25/7 11/26/7 3/27/7 1/28/7
f 10/29/8 9/30/8 1/31/8 5/32/8
f 12/33/9 10/34/9 5/35/9 7/36/9
f 11/37/10 12/38/10 7/39/10 3/40/10
f 13/41/11 15/42/11 11/43/11 9/44/11
f 14/45/12 13/46/12 9/47/12 10/48/12
f 16/49/13 14/50/13 10/51/13 12/52/13
f 15/53/14 16/54/14 12/55/14 11/56/14
f 19/57/15 24/58/15 18/59/15
f 19/60/16 20/61/16 25/62/16 24/63/16
f 20/64/17 21/65/17 26/66/17 25/67/17
f 21/68/18 22/69/18 27/70/18 26/71/18
f 22/72/19 23/73/19 28/74/19 27/75/19
f 28/76/20 23/77/20 17/78/20
f 24/79/21 29/80/21 18/81/21
f 24/82/22 25/83/22 30/84/22 29/85/22
f 25/86/23 26/87/23 31/88/23 30/89/23
f 26/90/24 27/91/24 32/92/24 31/93/24
f 27/94/25 28/95/25 33/96/25 32/97/25
f 33/98/26 28/99/26 17/100/26
f 29/101/27 34/102/27 18/103/27
f 29/104/28 30/105/28 35/106/28 34/107/28
f 30/108/29 31/109/29 36/110/29 35/111/29
f 31/112/30 32/113/30 37/114/30 36/115/30
f 32/116/31 33/117/31 38/118/31 37/119/31
f 38/120/32 33/121/32 17/122/32
f 34/123/33 39/124/33 18/125/33
f 34/126/34 35/127/34 40/128/34 39/129/34
f 35/130/35 36/131/35 41/132/35 40/133/35
f 36/134/36 37/135/36 42/136/36 41/137/36
f 37/138/37 38/139/37 43/140/37 42/141/37
f 43/142/38 38/143/38 17/144/38
f 39/145/39 44/146/39 18/147/39
f 39/148/40 40/149/40 45/150/40 44/151/40
f 40/152/41 41/153/41 46/154/41 45/155/41
f 41/156/42 42/157/42 47/158/42 46/159/42
f 42/160/43 43/161/43 48/162/43 47/163/43
f 48/164/44 43/165/44 17/166/44
f 44/167/45 49/168/45 18/169/45
f 44/170/46 45/171/46 50/172/46 49/173/46
f 45/174/47 46/175/47 51/176/47 50/177/47
f 46/178/48 47/179/48 52/180/48 51/181/48
f 47/182/49 48/183/49 53/184/49 52/185/49
f 53/186/50 48/187/50 17/188/50
f 49/189/51 54/190/51 18/191/51
f 49/192/52 50/193/52 55/194/52 54/195/52
f 50/196/53 51/197/53 56/198/53 55/199/53
f 51/200/54 52/201/54 57/202/54 56/203/54
f 52/204/55 53/205/55 58/206/55 57/207/55
f 58/208/56 53/209/56 17/210/56
f 54/211/57 59/212/57 18/213/57
f 54/214/58 55/215/58 60/216/58 59/217/58
f 55/218/59 56/219/59 61/220/59 60/221/59
f 56/222/60 57/223/60 62/224/60 61/225/60
f 57/226/61 58/227/61 63/228/61 62/229/61
f 63/230/62 58/231/62 17/232/62
f 59/233/63 64/234/63 18/235/63
f 59/236/64 60/237/64 65/238/64 64/239/64
f 60/240/65 61/241/65 66/242/65 65/243/65
f 61/244/66 62/245/66 67/246/66 66/247/66
f 62/248/67 63/249/67 68/250/67 67/251/67
f 68/252/68 63/253/68 17/254/68
f 64/255/69 69/256/69 18/257/69
f 64/258/70 65/259/70 70/260/70 69/261/70
f 65/262/71 66/263/71 71/264/71 70/265/71
f 66/266/72 67/267/72 72/268/72 71/269/72
f 67/270/73 68/271/73 73/272/73 72/273/73
f 73/274/74 68/275/74 17/276/74
f 69/277/75 74/278/75 18/279/75
f 69/280/76 70/281/76 75/282/76 74/283/76
f 70/284/77 71/285/77 76/286/77 75/287/77
f 71/288/78 72/289/78 77/290/78 76/291/78
f 72/292/79 73/293/79 78/294/79 77/295/79
f 78/296/80 73/297/80 17/298/80
f 74/299/81 19/300/81 18/301/81
f 74/302/82 75/303/82 20/304/82 19/305/82
f 75/306/83 76/307/83 21/308/83 20/309/83
f 76/310/84 77/311/84 22/312/84 21/313/84
f 77/314/85 78/315/85 23/316/85 22/317/85
f 23/318/86 78/319/86 17/320/86