# Made in Blockbench 5.0.7
mtllib lamp.mtl

o lamp
v 0 0.640625 0
v 0.016746875 0.546875 0.0625
v 0.01256 0.640625 0.046875
v 0.045753125 0.546875 0.045753125
v 0.034315 0.640625 0.034315
v 0.0625 0.546875 0.016746875
v 0.046875 0.640625 0.01256
v 0.0625 0.546875 -0.016746875
v 0.046875 0.640625 -0.01256
v 0.045753125 0.546875 -0.045753125
v 0.034315 0.640625 -0.034315
v 0.016746875 0.546875 -0.0625
v 0.01256 0.640625 -0.046875
v -0.016746875 0.546875 -0.0625
v -0.01256 0.640625 -0.046875
v -0.045753125 0.546875 -0.045753125
v -0.034315 0.640625 -0.034315
v -0.0625 0.546875 -0.016746875
v -0.046875 0.640625 -0.01256
v -0.0625 0.546875 0.016746875
v -0.046875 0.640625 0.01256
v -0.045753125 0.546875 0.045753125
v -0.034315 0.640625 0.034315
v -0.016746875 0.546875 0.0625
v -0.01256 0.640625 0.046875
v 0.053125 0.546875 0.014235
v 0.03889 0.546875 0.03889
v 0.014235 0.546875 0.053125
v -0.014235 0.546875 0.053125
v -0.03889 0.546875 0.03889
v -0.053125 0.546875 0.014235
v -0.053125 0.546875 -0.014235
v -0.03889 0.546875 -0.03889
v -0.014235 0.546875 -0.053125
v 0.014235 0.546875 -0.053125
v 0.03889 0.546875 -0.03889
v 0.053125 0.546875 -0.014235
v 0.0375 0.59375 0.010048125
v 0.027451875 0.59375 0.027451875
v 0 0.59375 0
v 0.010048125 0.59375 0.0375
v -0.010048125 0.59375 0.0375
v -0.027451875 0.59375 0.027451875
v -0.0375 0.59375 0.010048125
v -0.0375 0.59375 -0.010048125
v -0.027451875 0.59375 -0.027451875
v -0.010048125 0.59375 -0.0375
v 0.010048125 0.59375 -0.0375
v 0.027451875 0.59375 -0.027451875
v 0.0375 0.59375 -0.010048125
vt 0.27745 0.5649500000000001
vt 0.26005 0.575
vt 0.25 0.5375
vt 0.26674375 0.9027499999999999
vt 0.300101875 0.905690625
vt 0.287590625 1
vt 0.2625625 0.99779375
vt 0.4500625 0.90625
vt 0.4718125 0.9188125
vt 0.4375 0.953125
vt 0.2875 0.54755
vt 0.27745 0.5649500000000001
vt 0.25 0.5375
vt 0.199898125 0.7181906250000001
vt 0.23325625 0.7152499999999999
vt 0.2374375 0.81029375
vt 0.212409375 0.8125
vt 0.4718125 0.9188125
vt 0.484375 0.9405625
vt 0.4375 0.953125
vt 0.2875 0.52745
vt 0.2875 0.54755
vt 0.25 0.5375
vt 0.23325625 0.7152499999999999
vt 0.26674375 0.7152499999999999
vt 0.2625625 0.81029375
vt 0.2374375 0.81029375
vt 0.484375 0.9405625
vt 0.484375 0.9656875
vt 0.4375 0.953125
vt 0.27745 0.51005
vt 0.2875 0.52745
vt 0.25 0.5375
vt 0.26674375 0.7152499999999999
vt 0.300101875 0.7181906250000001
vt 0.287590625 0.8125
vt 0.2625625 0.81029375
vt 0.484375 0.9656875
vt 0.4718125 0.9874375
vt 0.4375 0.953125
vt 0.26005 0.5
vt 0.27745 0.51005
vt 0.25 0.5375
vt 0.012398125 0.7181906250000001
vt 0.04575625 0.7152499999999999
vt 0.0499375 0.81029375
vt 0.024909375 0.8125
vt 0.4718125 0.9874375
vt 0.4500625 1
vt 0.4375 0.953125
vt 0.23995 0.5
vt 0.26005 0.5
vt 0.25 0.5375
vt 0.04575625 0.7152499999999999
vt 0.07924375 0.7152499999999999
vt 0.0750625 0.81029375
vt 0.0499375 0.81029375
vt 0.4500625 1
vt 0.4249375 1
vt 0.4375 0.953125
vt 0.22255 0.51005
vt 0.23995 0.5
vt 0.25 0.5375
vt 0.07924375 0.7152499999999999
vt 0.112601875 0.7181906250000001
vt 0.100090625 0.8125
vt 0.0750625 0.81029375
vt 0.4249375 1
vt 0.4031875 0.9874375
vt 0.4375 0.953125
vt 0.2125 0.52745
vt 0.22255 0.51005
vt 0.25 0.5375
vt 0.012398125 0.5306906250000001
vt 0.04575625 0.5277499999999999
vt 0.0499375 0.62279375
vt 0.024909375 0.625
vt 0.4031875 0.9874375
vt 0.390625 0.9656875
vt 0.4375 0.953125
vt 0.2125 0.54755
vt 0.2125 0.52745
vt 0.25 0.5375
vt 0.04575625 0.5277499999999999
vt 0.07924375 0.5277499999999999
vt 0.0750625 0.62279375
vt 0.0499375 0.62279375
vt 0.390625 0.9656875
vt 0.390625 0.9405625
vt 0.4375 0.953125
vt 0.22255 0.5649500000000001
vt 0.2125 0.54755
vt 0.25 0.5375
vt 0.07924375 0.5277499999999999
vt 0.112601875 0.5306906250000001
vt 0.100090625 0.625
vt 0.0750625 0.62279375
vt 0.390625 0.9405625
vt 0.4031875 0.9188125
vt 0.4375 0.953125
vt 0.23995 0.575
vt 0.22255 0.5649500000000001
vt 0.25 0.5375
vt 0.199898125 0.905690625
vt 0.23325625 0.9027499999999999
vt 0.2374375 0.99779375
vt 0.212409375 1
vt 0.4031875 0.9188125
vt 0.4249375 0.90625
vt 0.4375 0.953125
vt 0.26005 0.575
vt 0.23995 0.575
vt 0.25 0.5375
vt 0.23325625 0.9027499999999999
vt 0.26674375 0.9027499999999999
vt 0.2625625 0.99779375
vt 0.2374375 0.99779375
vt 0.4249375 0.90625
vt 0.4500625 0.90625
vt 0.4375 0.953125
vt 0.1013875 0.9763875
vt 0.115625 0.9517375
vt 0.125 0.9542437500000001
vt 0.10825625 0.9832562499999999
vt 0.0767375 0.990625
vt 0.1013875 0.9763875
vt 0.10825625 0.9832562499999999
vt 0.07924375 1
vt 0.0482625 0.990625
vt 0.0767375 0.990625
vt 0.07924375 1
vt 0.04575625 1
vt 0.0236125 0.9763875
vt 0.0482625 0.990625
vt 0.04575625 1
vt 0.01674375 0.9832562499999999
vt 0.009375 0.9517375
vt 0.0236125 0.9763875
vt 0.01674375 0.9832562499999999
vt 0 0.9542437500000001
vt 0.009375 0.9232625
vt 0.009375 0.9517375
vt 0 0.9542437500000001
vt 0 0.9207562499999999
vt 0.0236125 0.8986125
vt 0.009375 0.9232625
vt 0 0.9207562499999999
vt 0.01674375 0.8917437500000001
vt 0.0482625 0.884375
vt 0.0236125 0.8986125
vt 0.01674375 0.8917437500000001
vt 0.04575625 0.875
vt 0.0767375 0.884375
vt 0.0482625 0.884375
vt 0.04575625 0.875
vt 0.07924375 0.875
vt 0.1013875 0.8986125
vt 0.0767375 0.884375
vt 0.07924375 0.875
vt 0.10825625 0.8917437500000001
vt 0.115625 0.9232625
vt 0.1013875 0.8986125
vt 0.10825625 0.8917437500000001
vt 0.125 0.9207562499999999
vt 0.115625 0.9517375
vt 0.115625 0.9232625
vt 0.125 0.9207562499999999
vt 0.125 0.9542437500000001
vt 0.467363125 0.5527949999999999
vt 0.44755 0.5494125000000001
vt 0.4517375 0.5
vt 0.47980625 0.504791875
vt 0.42745 0.7994125
vt 0.407636875 0.802795
vt 0.39519375 0.754791875
vt 0.4232625 0.75
vt 0.44755 0.7994125
vt 0.42745 0.7994125
vt 0.4232625 0.75
vt 0.4517375 0.75
vt 0.467363125 0.802795
vt 0.44755 0.7994125
vt 0.4517375 0.75
vt 0.47980625 0.754791875
vt 0.05245 0.42441249999999997
vt 0.032636875 0.42779500000000004
vt 0.02019375 0.379791875
vt 0.0482625 0.375
vt 0.07255 0.42441249999999997
vt 0.05245 0.42441249999999997
vt 0.0482625 0.375
vt 0.0767375 0.375
vt 0.092363125 0.42779500000000004
vt 0.07255 0.42441249999999997
vt 0.0767375 0.375
vt 0.10480625 0.379791875
vt 0.42745 0.6744125000000001
vt 0.407636875 0.6777949999999999
vt 0.39519375 0.629791875
vt 0.4232625 0.625
vt 0.44755 0.6744125000000001
vt 0.42745 0.6744125000000001
vt 0.4232625 0.625
vt 0.4517375 0.625
vt 0.467363125 0.6777949999999999
vt 0.44755 0.6744125000000001
vt 0.4517375 0.625
vt 0.47980625 0.629791875
vt 0.42745 0.5494125000000001
vt 0.407636875 0.5527949999999999
vt 0.39519375 0.504791875
vt 0.4232625 0.5
vt 0.44755 0.5494125000000001
vt 0.42745 0.5494125000000001
vt 0.4232625 0.5
vt 0.4517375 0.5
vn 0 -1 0
vn 0.49319955079157685 0.16439674633087709 0.8542411327574949
vn 0 1 0
vn 0 -1 0
vn 0.8542407019382636 0.16439973115288112 0.4931993020563624
vn 0 1 0
vn 0 -1 0
vn 0.9863939238321437 0.1643989873053573 0
vn 0 1 0
vn 0 -1 0
vn 0.8542411327574949 0.16439674633087709 -0.49319955079157685
vn 0 1 0
vn 0 -1 0
vn 0.4931993020563624 0.16439973115288112 -0.8542407019382636
vn 0 1 0
vn 0 -1 0
vn 0 0.1643989873053573 -0.9863939238321437
vn 0 1 0
vn 0 -1 0
vn -0.49319955079157685 0.16439674633087709 -0.8542411327574949
vn 0 1 0
vn 0 -1 0
vn -0.8542407019382636 0.16439973115288112 -0.4931993020563624
vn 0 1 0
vn 0 -1 0
vn -0.9863939238321437 0.1643989873053573 0
vn 0 1 0
vn 0 -1 0
vn -0.8542411327574949 0.16439674633087709 0.49319955079157685
vn 0 1 0
vn 0 -1 0
vn -0.4931993020563624 0.16439973115288112 0.8542407019382636
vn 0 1 0
vn 0 -1 0
vn 0 0.1643989873053573 0.9863939238321437
vn 0 1 0
vn 0 -1 0
vn 0 -1 0
vn 0 -1 0
vn 0 -1 0
vn 0 -1 0
vn 0 -1 0
vn 0 -1 0
vn 0 -1 0
vn 0 -1 0
vn 0 -1 0
vn 0 -1 0
vn 0 -1 0
vn -0.8215821203413949 -0.31622908952399864 -0.47434373873190405
vn -0.47434462386852605 -0.3162237787052794 -0.8215836534330397
vn 0 -0.316227766016838 -0.948683298050514
vn 0.47434373873190405 -0.31622908952399864 -0.8215821203413949
vn 0.8215836534330397 -0.3162237787052794 -0.47434462386852605
vn 0.948683298050514 -0.316227766016838 0
vn 0.8215821203413949 -0.31622908952399864 0.47434373873190405
vn 0.47434462386852605 -0.3162237787052794 0.8215836534330397
vn 0 -0.316227766016838 0.948683298050514
vn -0.47434373873190405 -0.31622908952399864 0.8215821203413949
vn -0.8215836534330397 -0.3162237787052794 0.47434462386852605
vn -0.948683298050514 -0.316227766016838 0
usemtl m_470fb050-f5db-1e64-ba8f-208d29e37272
f 39/1/1 41/2/1 40/3/1
f 2/4/2 4/5/2 5/6/2 3/7/2
f 3/8/3 5/9/3 1/10/3
f 38/11/4 39/12/4 40/13/4
f 4/14/5 6/15/5 7/16/5 5/17/5
f 5/18/6 7/19/6 1/20/6
f 50/21/7 38/22/7 40/23/7
f 6/24/8 8/25/8 9/26/8 7/27/8
f 7/28/9 9/29/9 1/30/9
f 49/31/10 50/32/10 40/33/10
f 8/34/11 10/35/11 11/36/11 9/37/11
f 9/38/12 11/39/12 1/40/12
f 48/41/13 49/42/13 40/43/13
f 10/44/14 12/45/14 13/46/14 11/47/14
f 11/48/15 13/49/15 1/50/15
f 47/51/16 48/52/16 40/53/16
f 12/54/17 14/55/17 15/56/17 13/57/17
f 13/58/18 15/59/18 1/60/18
f 46/61/19 47/62/19 40/63/19
f 14/64/20 16/65/20 17/66/20 15/67/20
f 15/68/21 17/69/21 1/70/21
f 45/71/22 46/72/22 40/73/22
f 16/74/23 18/75/23 19/76/23 17/77/23
f 17/78/24 19/79/24 1/80/24
f 44/81/25 45/82/25 40/83/25
f 18/84/26 20/85/26 21/86/26 19/87/26
f 19/88/27 21/89/27 1/90/27
f 43/91/28 44/92/28 40/93/28
f 20/94/29 22/95/29 23/96/29 21/97/29
f 21/98/30 23/99/30 1/100/30
f 42/101/31 43/102/31 40/103/31
f 22/104/32 24/105/32 25/106/32 23/107/32
f 23/108/33 25/109/33 1/110/33
f 41/111/34 42/112/34 40/113/34
f 24/114/35 2/115/35 3/116/35 25/117/35
f 25/118/36 3/119/36 1/120/36
f 27/121/37 26/122/37 6/123/37 4/124/37
f 28/125/38 27/126/38 4/127/38 2/128/38
f 29/129/39 28/130/39 2/131/39 24/132/39
f 30/133/40 29/134/40 24/135/40 22/136/40
f 31/137/41 30/138/41 22/139/41 20/140/41
f 32/141/42 31/142/42 20/143/42 18/144/42
f 33/145/43 32/146/43 18/147/43 16/148/43
f 34/149/44 33/150/44 16/151/44 14/152/44
f 35/153/45 34/154/45 14/155/45 12/156/45
f 36/157/46 35/158/46 12/159/46 10/160/46
f 37/161/47 36/162/47 10/163/47 8/164/47
f 26/165/48 37/166/48 8/167/48 6/168/48
f 39/169/49 38/170/49 26/171/49 27/172/49
f 41/173/50 39/174/50 27/175/50 28/176/50
f 42/177/51 41/178/51 28/179/51 29/180/51
f 43/181/52 42/182/52 29/183/52 30/184/52
f 44/185/53 43/186/53 30/187/53 31/188/53
f 45/189/54 44/190/54 31/191/54 32/192/54
f 46/193/55 45/194/55 32/195/55 33/196/55
f 47/197/56 46/198/56 33/199/56 34/200/56
f 48/201/57 47/202/57 34/203/57 35/204/57
f 49/205/58 48/206/58 35/207/58 36/208/58
f 50/209/59 49/210/59 36/211/59 37/212/59
f 38/213/60 50/214/60 37/215/60 26/216/60